# Blender v2.80 (sub 75) OBJ File: ''
# www.blender.org
mtllib tinker3.mtl
o obj_0
v -0.006915 -0.002752 0.006113
v -0.009085 -0.002752 0.006113
v -0.006915 -0.002752 0.003887
v -0.009085 -0.002752 0.003887
v -0.006915 0.006752 0.006113
v -0.006915 0.006752 0.003887
v -0.009085 0.006752 0.003887
v -0.009955 0.001059 0.009505
v -0.010437 -0.001056 0.008117
v -0.009353 0.000304 0.009505
v -0.005563 -0.001056 0.008117
v -0.004961 -0.001811 0.006113
v -0.003608 -0.000115 0.006113
v -0.009085 0.006752 0.006113
v -0.004961 0.005811 0.006113
v -0.005563 0.005056 0.008117
v -0.008870 -0.001811 0.008117
v -0.008483 -0.000115 0.009505
v -0.004961 -0.001811 0.003887
v -0.007130 0.005811 0.008117
v -0.007517 -0.000115 0.009505
v -0.006647 0.000304 0.009505
v -0.008000 0.002000 0.010000
v -0.003608 0.004115 0.003887
v -0.003608 0.004115 0.006113
v -0.003125 0.002000 0.003887
v -0.003608 -0.000115 0.003887
v -0.006045 0.001059 0.009505
v -0.010437 0.005056 0.008117
v -0.009353 0.003696 0.009505
v -0.008483 0.004115 0.009505
v -0.004961 0.005811 0.003887
v -0.005831 0.002000 0.009505
v -0.011039 -0.001811 0.006113
v -0.011522 0.003696 0.008117
v -0.009955 0.002941 0.009505
v -0.012875 0.002000 0.003887
v -0.011909 0.002000 0.001883
v -0.011522 0.000304 0.001883
v -0.006045 0.002941 0.009505
v -0.011039 -0.001811 0.003887
v -0.006647 0.003696 0.009505
v -0.007130 -0.001811 0.001883
v -0.005563 -0.001056 0.001883
v -0.007517 0.004115 0.009505
v -0.011522 0.000304 0.008117
v -0.004478 0.000304 0.001883
v -0.006045 0.001059 0.000495
v -0.005831 0.002000 0.000495
v -0.006647 0.000304 0.000495
v -0.012392 -0.000115 0.006113
v -0.008870 0.005811 0.008117
v -0.012392 -0.000115 0.003887
v -0.011039 0.005811 0.006113
v -0.012875 0.002000 0.006113
v -0.010169 0.002000 0.009505
v -0.004478 0.003696 0.001883
v -0.005563 0.005056 0.001883
v -0.012392 0.004115 0.006113
v -0.007130 0.005811 0.001883
v -0.006647 0.003696 0.000495
v -0.010437 -0.001056 0.001883
v -0.006045 0.002941 0.000495
v -0.009955 0.001059 0.000495
v -0.004478 0.000304 0.008117
v -0.010169 0.002000 0.000495
v -0.007517 -0.000115 0.000495
v -0.008870 -0.001811 0.001883
v -0.004478 0.003696 0.008117
v -0.004091 0.002000 0.008117
v -0.007517 0.004115 0.000495
v -0.009353 0.000304 0.000495
v -0.011909 0.002000 0.008117
v -0.008483 -0.000115 0.000495
v -0.012392 0.004115 0.003887
v -0.011039 0.005811 0.003887
v -0.008000 0.002000 0.000000
v -0.010437 0.005056 0.001883
v -0.009353 0.003696 0.000495
v -0.009955 0.002941 0.000495
v -0.008870 0.005811 0.001883
v -0.004091 0.002000 0.001883
v -0.008483 0.004115 0.000495
v -0.011522 0.003696 0.001883
v -0.003125 0.002000 0.006113
v -0.007130 -0.001811 0.008117
vn 0.2173 -0.9519 0.2160
vn -0.2173 -0.9519 0.2160
vn 0.2173 -0.9519 -0.2160
vn -0.2173 -0.9519 -0.2160
vn 0.2173 0.9519 0.2160
vn 0.2173 0.9519 -0.2160
vn -0.2173 0.9519 -0.2160
vn -0.4137 -0.1990 0.8884
vn -0.4948 -0.6204 0.6084
vn -0.2863 -0.3589 0.8884
vn 0.4948 -0.6204 0.6085
vn 0.6087 -0.7634 0.2160
vn 0.8796 -0.4237 0.2161
vn -0.2173 0.9519 0.2160
vn 0.6087 0.7634 0.2161
vn 0.4948 0.6204 0.6084
vn -0.1766 -0.7737 0.6084
vn -0.1021 -0.4475 0.8884
vn 0.6087 -0.7634 -0.2161
vn 0.1766 0.7737 0.6084
vn 0.1021 -0.4475 0.8884
vn 0.2862 -0.3589 0.8884
vn 0.0000 0.0000 1.0000
vn 0.8796 0.4237 -0.2161
vn 0.8796 0.4237 0.2161
vn 0.9763 0.0000 -0.2161
vn 0.8796 -0.4237 -0.2161
vn 0.4136 -0.1990 0.8884
vn -0.4948 0.6204 0.6085
vn -0.2862 0.3589 0.8884
vn -0.1021 0.4475 0.8884
vn 0.6087 0.7634 -0.2160
vn 0.4590 0.0001 0.8884
vn -0.6087 -0.7634 0.2161
vn -0.7149 0.3444 0.6085
vn -0.4136 0.1990 0.8884
vn -0.9763 0.0000 -0.2161
vn -0.7935 0.0000 -0.6086
vn -0.7149 -0.3444 -0.6085
vn 0.4137 0.1990 0.8884
vn -0.6087 -0.7634 -0.2160
vn 0.2863 0.3589 0.8884
vn 0.1766 -0.7737 -0.6084
vn 0.4948 -0.6204 -0.6084
vn 0.1021 0.4475 0.8884
vn -0.7149 -0.3443 0.6085
vn 0.7149 -0.3443 -0.6085
vn 0.4137 -0.1990 -0.8884
vn 0.4590 -0.0001 -0.8884
vn 0.2863 -0.3589 -0.8884
vn -0.8796 -0.4237 0.2161
vn -0.1766 0.7737 0.6084
vn -0.8796 -0.4237 -0.2161
vn -0.6087 0.7634 0.2160
vn -0.9763 0.0000 0.2161
vn -0.4590 -0.0001 0.8884
vn 0.7149 0.3444 -0.6085
vn 0.4948 0.6204 -0.6085
vn -0.8796 0.4237 0.2161
vn 0.1766 0.7737 -0.6084
vn 0.2862 0.3589 -0.8884
vn -0.4948 -0.6204 -0.6085
vn 0.4136 0.1990 -0.8884
vn -0.4136 -0.1990 -0.8884
vn 0.7149 -0.3444 0.6085
vn -0.4590 0.0001 -0.8884
vn 0.1021 -0.4475 -0.8884
vn -0.1766 -0.7737 -0.6084
vn 0.7149 0.3443 0.6085
vn 0.7935 0.0000 0.6086
vn 0.1021 0.4475 -0.8884
vn -0.2862 -0.3589 -0.8884
vn -0.7935 -0.0000 0.6086
vn -0.1021 -0.4475 -0.8884
vn -0.8796 0.4237 -0.2161
vn -0.6087 0.7634 -0.2161
vn 0.0000 0.0000 -1.0000
vn -0.4948 0.6204 -0.6084
vn -0.2863 0.3589 -0.8884
vn -0.4137 0.1990 -0.8884
vn -0.1766 0.7737 -0.6084
vn 0.7935 -0.0000 -0.6086
vn -0.1021 0.4475 -0.8884
vn -0.7149 0.3443 -0.6085
vn 0.9763 0.0000 0.2161
vn 0.1766 -0.7737 0.6084
usemtl color_40919
s 1
f 1//1 2//2 3//3
f 4//4 3//3 2//2
f 5//5 6//6 7//7
f 8//8 9//9 10//10
f 11//11 12//12 13//13
f 14//14 5//5 7//7
f 15//15 5//5 16//16
f 10//10 17//17 18//18
f 19//19 13//13 12//12
f 17//17 10//10 9//9
f 16//16 5//5 20//20
f 12//12 1//1 19//19
f 1//1 3//3 19//19
f 21//21 22//22 23//23
f 24//24 25//25 26//26
f 13//13 19//19 27//27
f 22//22 28//28 23//23
f 29//29 30//30 31//31
f 26//26 13//13 27//27
f 24//24 32//32 15//15
f 24//24 15//15 25//25
f 28//28 33//33 23//23
f 9//9 34//34 2//2
f 30//30 35//35 36//36
f 37//37 38//38 39//39
f 33//33 40//40 23//23
f 32//32 6//6 15//15
f 41//41 2//2 34//34
f 29//29 35//35 30//30
f 40//40 42//42 23//23
f 3//3 43//43 44//44
f 9//9 2//2 17//17
f 42//42 45//45 23//23
f 46//46 34//34 9//9
f 47//47 48//48 49//49
f 1//1 17//17 2//2
f 43//43 50//50 44//44
f 51//51 34//34 46//46
f 45//45 31//31 23//23
f 5//5 15//15 6//6
f 3//3 44//44 19//19
f 31//31 30//30 23//23
f 14//14 52//52 5//5
f 20//20 5//5 52//52
f 34//34 51//51 41//41
f 53//53 41//41 51//51
f 30//30 36//36 23//23
f 52//52 54//54 29//29
f 47//47 19//19 44//44
f 51//51 55//55 53//53
f 36//36 56//56 23//23
f 24//24 57//57 58//58
f 14//14 54//54 52//52
f 2//2 41//41 4//4
f 54//54 59//59 29//29
f 24//24 58//58 32//32
f 32//32 60//60 6//6
f 21//21 18//18 17//17
f 39//39 53//53 37//37
f 58//58 60//60 32//32
f 57//57 61//61 58//58
f 53//53 39//39 62//62
f 29//29 59//59 35//35
f 7//7 6//6 60//60
f 57//57 63//63 61//61
f 38//38 64//64 39//39
f 28//28 22//22 65//65
f 53//53 62//62 41//41
f 38//38 66//66 64//64
f 50//50 43//43 67//67
f 59//59 55//55 35//35
f 41//41 68//68 4//4
f 44//44 50//50 48//48
f 25//25 69//69 70//70
f 41//41 62//62 68//68
f 58//58 61//61 71//71
f 37//37 53//53 55//55
f 44//44 48//48 47//47
f 64//64 72//72 39//39
f 68//68 43//43 3//3
f 68//68 3//3 4//4
f 58//58 71//71 60//60
f 14//14 7//7 54//54
f 28//28 70//70 33//33
f 39//39 72//72 62//62
f 69//69 16//16 40//40
f 65//65 70//70 28//28
f 46//46 56//56 73//73
f 72//72 74//74 62//62
f 70//70 69//69 33//33
f 36//36 73//73 56//56
f 69//69 15//15 16//16
f 75//75 55//55 59//59
f 35//35 73//73 36//36
f 25//25 15//15 69//69
f 62//62 74//74 68//68
f 73//73 55//55 51//51
f 54//54 7//7 76//76
f 77//77 50//50 67//67
f 35//35 55//55 73//73
f 67//67 43//43 74//74
f 74//74 43//43 68//68
f 76//76 75//75 59//59
f 76//76 59//59 54//54
f 33//33 69//69 40//40
f 73//73 51//51 46//46
f 77//77 48//48 50//50
f 78//78 79//79 80//80
f 37//37 55//55 75//75
f 77//77 49//49 48//48
f 16//16 20//20 42//42
f 56//56 46//46 8//8
f 77//77 63//63 49//49
f 40//40 16//16 42//42
f 77//77 61//61 63//63
f 60//60 81//81 7//7
f 9//9 8//8 46//46
f 77//77 71//71 61//61
f 27//27 47//47 82//82
f 81//81 78//78 7//7
f 20//20 45//45 42//42
f 11//11 13//13 65//65
f 47//47 49//49 82//82
f 77//77 83//83 71//71
f 31//31 45//45 52//52
f 81//81 79//79 78//78
f 77//77 79//79 83//83
f 83//83 79//79 81//81
f 26//26 27//27 82//82
f 78//78 80//80 84//84
f 7//7 78//78 76//76
f 20//20 52//52 45//45
f 65//65 85//85 70//70
f 80//80 66//66 84//84
f 75//75 76//76 84//84
f 26//26 57//57 24//24
f 31//31 52//52 29//29
f 86//86 21//21 17//17
f 80//80 79//79 77//77
f 8//8 23//23 56//56
f 21//21 86//86 11//11
f 26//26 82//82 57//57
f 86//86 12//12 11//11
f 77//77 66//66 80//80
f 86//86 1//1 12//12
f 65//65 13//13 85//85
f 78//78 84//84 76//76
f 21//21 11//11 22//22
f 8//8 10//10 23//23
f 84//84 66//66 38//38
f 82//82 63//63 57//57
f 65//65 22//22 11//11
f 84//84 38//38 75//75
f 70//70 85//85 25//25
f 82//82 49//49 63//63
f 17//17 1//1 86//86
f 10//10 18//18 23//23
f 26//26 85//85 13//13
f 75//75 38//38 37//37
f 66//66 77//77 64//64
f 19//19 47//47 27//27
f 18//18 21//21 23//23
f 85//85 26//26 25//25
f 81//81 71//71 83//83
f 60//60 71//71 81//81
f 77//77 72//72 64//64
f 74//74 72//72 77//77
f 77//77 67//67 74//74
